<svg t="1692324698085" class="icon" viewBox="0 0 1024 1024" version="1.1" xmlns="http://www.w3.org/2000/svg" p-id="8553" width="200" height="200"><path d="M248.30976 245.21728h452.95616v77.47584H248.30976z" fill="#2B3B95" p-id="8554"></path><path d="M158.57664 97.37216h632.41216v225.32096h77.49632V19.88608H81.07008V974.01856h563.32288v-77.47584H158.57664z" fill="#2B3B95" p-id="8555"></path><path d="M827.2384 731.2896c34.97984-42.52672 56.832-96.26624 56.832-155.61728 0-136.11008-110.34624-246.45632-246.44608-246.45632-78.72512 0-148.03968 37.60128-193.14688 95.05792H248.30976V501.76h155.40224c-7.43424 23.47008-12.544 47.9744-12.544 73.91232 0 19.82464 2.9696 38.8608 7.3728 57.344H248.30976V808.5504h312.064c24.44288 8.12032 50.1248 13.55776 77.25056 13.55776 48.24064 0 92.90752-14.39744 130.9184-38.36928l194.9696 153.06752 47.85152-60.91776-184.12544-144.59904z" fill="#2B3B95" p-id="8556"></path></svg>
