<svg t="1692324369878" class="icon" viewBox="0 0 1024 1024" version="1.1" xmlns="http://www.w3.org/2000/svg" p-id="1310" width="200" height="200"><path d="M287.2 639h64v64h-64zM287.2 479.8h64v64h-64zM287.2 320.7h64v64h-64zM447.2 450.9h287.3c17.7 0 32-14.3 32-32s-14.3-32-32-32H447.2c-17.7 0-32 14.3-32 32s14.3 32 32 32zM736.3 576H449c-17.7 0-32 14.3-32 32s14.3 32 32 32h287.3c17.7 0 32-14.3 32-32s-14.3-32-32-32z" p-id="1311"></path><path d="M929.5 456.6c17.6-0.1 31.8-14.4 31.8-32V223.3c0-17.7-14.3-32-32-32H95.6c-17.7 0-32 14.3-32 32v201.3c0 17.6 14.1 31.8 31.7 32 29.8 0.3 54.1 24.8 54.1 54.6 0 29.9-24.3 54.4-54.1 54.6-17.6 0.2-31.7 14.4-31.7 32v203.5c0 17.7 14.3 32 32 32h833.7c17.7 0 32-14.3 32-32V597.9c0-17.6-14.2-31.9-31.8-32-30-0.1-54.4-24.7-54.4-54.7 0-30 24.4-54.5 54.4-54.6z m-83.9 138.3c14.6 14.6 32.3 25 51.7 30.5v144H127.6V625.3c19.3-5.5 36.9-15.9 51.4-30.5 22.2-22.4 34.4-52 34.4-83.5s-12.2-61.2-34.4-83.5c-14.5-14.6-32.2-25-51.4-30.5v-142h769.7V397c-19.4 5.5-37.1 15.8-51.7 30.5-22.3 22.4-34.6 52.1-34.6 83.7 0.1 31.6 12.3 61.3 34.6 83.7z" p-id="1312"></path></svg>
