<svg t="1692324642659" class="icon" viewBox="0 0 1024 1024" version="1.1" xmlns="http://www.w3.org/2000/svg" p-id="6659" width="200" height="200"><path d="M354.474667 1024H39.367111A39.480889 39.480889 0 0 1 0 984.462222v-316.131555a39.480889 39.480889 0 0 1 39.367111-39.537778h315.107556a39.480889 39.480889 0 0 1 39.367111 39.537778v316.188444a39.480889 39.480889 0 0 1-39.367111 39.480889z m512-276.650667H512a39.537778 39.537778 0 0 1 0-79.018666h354.474667a39.537778 39.537778 0 0 1 0 79.018666z m118.158222 237.112889H512a39.537778 39.537778 0 0 1 0-79.018666h472.632889a39.537778 39.537778 0 0 1 0 79.018666zM354.474667 452.096H39.367111A39.424 39.424 0 0 1 0 412.558222V96.426667A39.480889 39.480889 0 0 1 39.367111 56.888889h315.107556a39.480889 39.480889 0 0 1 39.367111 39.537778v316.131555a39.424 39.424 0 0 1-39.367111 39.537778z m512-276.650667H512a39.537778 39.537778 0 0 1 0-79.018666h354.474667a39.537778 39.537778 0 0 1 0 79.018666z m118.158222 237.112889H512a39.537778 39.537778 0 0 1 0-79.018666h472.632889a39.537778 39.537778 0 0 1 0 79.018666z" fill="#808080" p-id="6660"></path></svg>
